<svg id="Layer_1" data-name="Layer 1" xmlns="http://www.w3.org/2000/svg" viewBox="0 0 91 91"><defs><style>.cls-1{fill:#c2d0bb;}</style></defs><title>github</title><path class="cls-1" d="M60.23,12.61a45.5,45.5,0,1,0,45.5,45.5A45.5,45.5,0,0,0,60.23,12.61Zm6.47,63.66a60.91,60.91,0,0,1-6.47.37c-3.39,0-6.51-.34-6.51-0.34-7.92-.9-16.24-4-16.24-17.62a13.78,13.78,0,0,1,3.67-9.57,12.83,12.83,0,0,1,.35-9.44s3-1,9.81,3.66a33.8,33.8,0,0,1,17.86,0C76,38.71,79,39.67,79,39.67a12.81,12.81,0,0,1,.36,9.44A13.76,13.76,0,0,1,83,58.68C83,72.37,74.64,75.39,66.69,76.27Z" transform="translate(-14.73 -12.61)"/></svg>