<svg id="Layer_1" data-name="Layer 1" xmlns="http://www.w3.org/2000/svg" viewBox="0 0 91 91"><defs><style>.cls-1{fill:#c2d0bb;}</style></defs><title>linked</title><path class="cls-1" d="M59.5,12.61A45.5,45.5,0,1,0,105,58.11,45.5,45.5,0,0,0,59.5,12.61ZM46.94,80.82H37.5V50.49h9.44V80.82ZM42.22,46.34a5.47,5.47,0,1,1,5.46-5.47A5.47,5.47,0,0,1,42.22,46.34Zm40,34.48H72.82V66.07c0-3.52-.06-8-4.9-8s-5.65,3.83-5.65,7.79v15H52.85V50.49h9v4.15H62a9.9,9.9,0,0,1,8.92-4.9c9.55,0,11.31,6.28,11.31,14.45V80.82Z" transform="translate(-14 -12.61)"/></svg>