<svg id="Layer_1" data-name="Layer 1" xmlns="http://www.w3.org/2000/svg" viewBox="0 0 121 121"><defs><style>.cls-1{fill:#fff;}</style></defs><title>social</title><path class="cls-1" d="M61.71,12.61a45.5,45.5,0,1,0,45.5,45.5A45.5,45.5,0,0,0,61.71,12.61Zm6.47,63.66a60.91,60.91,0,0,1-6.47.37c-3.39,0-6.51-.34-6.51-0.34C47.28,75.4,39,72.34,39,58.68a13.78,13.78,0,0,1,3.67-9.57A12.83,12.83,0,0,1,43,39.67s3-1,9.81,3.66a33.8,33.8,0,0,1,17.86,0c6.81-4.61,9.8-3.66,9.8-3.66a12.81,12.81,0,0,1,.36,9.44,13.76,13.76,0,0,1,3.67,9.57C84.46,72.37,76.12,75.39,68.18,76.27Z"/></svg>